<?xml version="1.0" encoding="UTF-8"?>
<svg width="105px" height="121px" viewBox="0 0 105 121" version="1.1" xmlns="http://www.w3.org/2000/svg" xmlns:xlink="http://www.w3.org/1999/xlink">
    <!-- Generator: Sketch 51.2 (57519) - http://www.bohemiancoding.com/sketch -->
    <title>Slice 1</title>
    <desc>Created with Sketch.</desc>
   <defs>
        <linearGradient id="left-to-right">
          <stop offset="0" stop-color="#FAC333">
            <animate dur="2s" attributeName="offset" fill="freeze" from="0" to="1" />
          </stop>
          <stop offset="0" stop-color="#fff">
            <animate dur="2s" attributeName="offset" fill="freeze" from="0" to="1" />
          </stop>
          
        </linearGradient>
    </defs>
    <g id="Page-1" stroke="none" stroke-width="1" fill="none" fill-rule="evenodd">
        <g id="if_12_2261525" fill-rule="nonzero">
            <g id="Group" transform="translate(30.222222, 11.376068)">
                <path d="M2.43957826,99.0084393 C2.25660989,99.0084393 2.07364152,98.9693519 1.92116788,98.8520896 C1.28077859,98.4612154 1.00632603,97.5231173 1.31127332,96.7022814 C4.8486618,86.930426 13.4176805,77.7057945 26.7438767,69.3019988 C27.2012976,69.0283868 27.5367397,68.7938623 27.719708,68.6766 C31.98897,65.705956 39.1857259,59.2565314 39.2162206,49.0938017 C39.2467153,41.0417929 37.7524736,32.9116091 19.1506894,21.4589945 C10.9781022,16.4167171 5.21459854,10.0845548 2.07364152,2.57976984 C1.73819951,1.7980214 1.98215734,0.820835857 2.59205191,0.390874218 C3.20194647,-0.0390874218 3.96431468,0.273611952 4.29975669,1.05536039 C7.19675588,7.93474662 12.5638281,13.8369473 20.2484996,18.5274379 C38.3013788,29.6282657 41.7777778,38.1102362 41.747283,49.0938017 C41.6862936,60.8982031 33.66618,68.207551 28.9090024,71.4908944 C28.6955393,71.6472441 28.3296026,71.8817686 27.8416869,72.1553806 C15.0339011,80.2073895 6.86131387,88.9238845 3.56788321,97.9921664 C3.38491484,98.6566525 2.92749392,99.0084393 2.43957826,99.0084393 Z" id="Shape" fill="#56AAFF"></path>
                <path d="M17.0770479,74.0315768 C16.8635848,74.0315768 16.6806164,73.953402 16.4671533,73.8361397 C14.3325223,72.3899051 13.0822384,71.4908944 12.5943228,71.0609328 C8.96545012,67.933939 0.457420925,59.5692308 0.304947283,49.1719766 C0.152473642,39.947345 2.74452555,31.8953362 15.9182482,22.4752675 C16.5281427,22.0453059 17.2905109,22.3189178 17.625953,23.1006663 C17.961395,23.8824147 17.7479319,24.8596002 17.1380373,25.2895619 C5.03163017,33.9669695 2.68353609,40.8072683 2.805515,49.0938017 C2.95798865,58.2402584 11.4050284,66.1359176 13.9665856,68.3639007 C14.4240065,68.7547749 16.1012165,69.9273975 17.625953,70.9827579 C18.2358475,71.4127196 18.4798054,72.3899051 18.1443633,73.1716535 C17.961395,73.7188774 17.503974,74.0315768 17.0770479,74.0315768 Z" id="Shape" fill="#56AAFF"></path>
                <path d="M25.707056,19.3873612 C25.2801298,19.3873612 24.8532036,19.0746618 24.6092457,18.5665253 C24.2738037,17.7847769 24.4872668,16.8075914 25.0971614,16.3776297 C31.0436334,12.0780133 35.2824006,6.91847365 37.7524736,1.09444781 C38.0879157,0.312699374 38.8502839,-2.49800181e-16 39.4601784,0.429961639 C40.070073,0.859923279 40.3140308,1.83710882 39.9785888,2.61885726 C37.2950527,8.99010701 32.7208435,14.5405209 26.3474453,19.1528367 C26.1339822,19.3482738 25.9205191,19.3873612 25.707056,19.3873612 Z" id="Shape" fill="#56AAFF"></path>
                <path d="M31.5925385,6.72303654 L10.0937551,6.72303654 C9.39237632,6.72303654 8.84347121,5.98037553 8.84347121,5.12045225 C8.84347121,4.22144155 9.42287105,3.51786796 10.0937551,3.51786796 L31.5925385,3.51786796 C32.2939173,3.51786796 32.8428224,4.26052897 32.8428224,5.12045225 C32.8733171,6.01946295 32.2939173,6.72303654 31.5925385,6.72303654 Z" id="Shape" fill="#D9DCE1"></path>
                <path d="M31.1046229,39.1265092 L10.886618,39.1265092 C10.1852393,39.1265092 9.63633414,38.3838482 9.63633414,37.5239249 C9.63633414,36.6640016 10.215734,35.9213406 10.886618,35.9213406 L31.1046229,35.9213406 C31.8060016,35.9213406 32.3549067,36.6640016 32.3549067,37.5239249 C32.3549067,38.3838482 31.8060016,39.1265092 31.1046229,39.1265092 Z" id="Shape" fill="#D9DCE1"></path>
                <path d="M31.1046229,61.7581264 L10.886618,61.7581264 C10.1852393,61.7581264 9.63633414,61.0154654 9.63633414,60.1555421 C9.63633414,59.2956188 10.215734,58.5529578 10.886618,58.5529578 L31.1046229,58.5529578 C31.8060016,58.5529578 32.3549067,59.2956188 32.3549067,60.1555421 C32.3549067,61.0154654 31.8060016,61.7581264 31.1046229,61.7581264 Z" id="Shape" fill="#D9DCE1"></path>
                <path d="M34.8859692,50.4227741 L7.07477697,50.4227741 C6.37339822,50.4227741 5.82449311,49.6801131 5.82449311,48.8201898 C5.82449311,47.9602665 6.40389294,47.2176055 7.07477697,47.2176055 L34.8859692,47.2176055 C35.5873479,47.2176055 36.136253,47.9602665 36.136253,48.8201898 C36.136253,49.6801131 35.5873479,50.4227741 34.8859692,50.4227741 Z" id="Shape" fill="#D9DCE1"></path>
                <path d="M31.5925385,95.7641833 L10.0937551,95.7641833 C9.39237632,95.7641833 8.84347121,95.0215223 8.84347121,94.161599 C8.84347121,93.3016758 9.42287105,92.5590147 10.0937551,92.5590147 L31.5925385,92.5590147 C32.2939173,92.5590147 32.8428224,93.3016758 32.8428224,94.161599 C32.8428224,95.0215223 32.2939173,95.7641833 31.5925385,95.7641833 Z" id="Shape" fill="#D9DCE1"></path>
                <path d="M40.2530414,99.0084393 C39.7651257,99.0084393 39.3077048,98.6566525 39.0942417,98.0703412 C37.3865369,93.3407632 33.4832117,86.3832021 24.4872668,80.3246517 C23.8773723,79.8946901 23.6334144,78.9175045 23.9688564,78.1357561 C24.3042985,77.3540077 25.0666667,77.0413083 25.6765612,77.4712699 C33.3917275,82.7089845 38.6978102,89.158409 41.411841,96.7413689 C41.7167883,97.5622047 41.411841,98.5003028 40.8019465,98.8911771 C40.6189781,98.9693519 40.4360097,99.0084393 40.2530414,99.0084393 Z" id="Shape" fill="#56AAFF"></path>
            </g>
            <g id="Group" transform="translate(69.333333, 0.000000)">
                <path d="M26.9970501,69.6424908 C22.7941003,69.6424908 19.3581121,65.3190476 19.3581121,59.943956 C19.3581121,54.6078144 22.7941003,50.2843712 26.9970501,50.2843712 C31.2,50.2843712 34.6359882,54.6078144 34.6359882,59.943956 C34.6359882,65.2800977 31.2306785,69.6424908 26.9970501,69.6424908 Z M26.9970501,53.4782662 C24.2053097,53.4782662 21.9044248,56.3605617 21.9044248,59.943956 C21.9044248,63.4884005 24.1746313,66.4096459 26.9970501,66.4096459 C29.819469,66.4096459 32.0896755,63.5273504 32.0896755,59.943956 C32.0896755,56.3995116 29.819469,53.4782662 26.9970501,53.4782662 Z" id="Shape" fill="url(#left-to-right)"></path>
                <g transform="translate(5.215339, 58.035409)" fill="#56AAFF" id="Shape">
                    <path d="M5.89026549,3.50549451 L1.44188791,3.50549451 C0.736283186,3.50549451 0.184070796,2.76544567 0.184070796,1.90854701 C0.184070796,1.05164835 0.766961652,0.311599512 1.44188791,0.311599512 L5.89026549,0.311599512 C6.59587021,0.311599512 7.1480826,1.05164835 7.1480826,1.90854701 C7.1480826,2.76544567 6.59587021,3.50549451 5.89026549,3.50549451 Z"></path>
                    <path d="M15.4312684,3.50549451 L10.9828909,3.50549451 C10.2772861,3.50549451 9.72507375,2.76544567 9.72507375,1.90854701 C9.72507375,1.05164835 10.3079646,0.311599512 10.9828909,0.311599512 L15.4312684,0.311599512 C16.1368732,0.311599512 16.6890855,1.05164835 16.6890855,1.90854701 C16.6890855,2.76544567 16.1368732,3.50549451 15.4312684,3.50549451 Z"></path>
                </g>
                <g transform="translate(0.000000, 82.184371)" id="Shape">
                    <path d="M21.9351032,37.4308913 C17.7321534,37.4308913 14.2961652,33.1074481 14.2961652,27.7713065 C14.2961652,22.4351648 17.7321534,18.1117216 21.9351032,18.1117216 C26.1380531,18.1117216 29.5740413,22.4351648 29.5740413,27.7713065 C29.5433628,33.1074481 26.1380531,37.4308913 21.9351032,37.4308913 Z M21.9351032,21.3056166 C19.1433628,21.3056166 16.8424779,24.1879121 16.8424779,27.7713065 C16.8424779,31.3157509 19.1126844,34.2369963 21.9351032,34.2369963 C24.7575221,34.2369963 27.0277286,31.3547009 27.0277286,27.7713065 C26.9970501,24.226862 24.7268437,21.3056166 21.9351032,21.3056166 Z" fill="url(#left-to-right)"></path>
                    <g fill="#56AAFF">
                        <path d="M17.4560472,23.7205128 C17.1185841,23.7205128 16.8117994,23.5647131 16.5663717,23.2531136 L11.1669617,16.3979243 C10.6761062,15.7747253 10.6761062,14.7620269 11.1669617,14.0998779 C11.6578171,13.4377289 12.4554572,13.4766789 12.9769912,14.0998779 L18.3764012,20.9550672 C18.8672566,21.5782662 18.8672566,22.5909646 18.3764012,23.2531136 C18.1309735,23.5647131 17.7935103,23.7205128 17.4560472,23.7205128 Z"></path>
                        <path d="M6.81061947,10.204884 C6.47315634,10.204884 6.16637168,10.0490842 5.92094395,9.73748474 L0.521533923,2.88229548 C0.0306784661,2.25909646 0.0306784661,1.24639805 0.521533923,0.584249084 C1.01238938,-0.0389499389 1.8100295,-0.0389499389 2.33156342,0.584249084 L7.73097345,7.43943834 C8.22182891,8.06263736 8.22182891,9.07533578 7.73097345,9.73748474 C7.45486726,10.0490842 7.11740413,10.204884 6.81061947,10.204884 Z"></path>
                    </g>
                </g>
                <g id="Shape">
                    <path d="M21.9351032,19.3970696 C17.7321534,19.3970696 14.2961652,15.0736264 14.2961652,9.73748474 C14.2961652,4.4013431 17.7321534,0.0778998779 21.9351032,0.0778998779 C26.1380531,0.0778998779 29.5740413,4.4013431 29.5740413,9.73748474 C29.5740413,15.0736264 26.1380531,19.3970696 21.9351032,19.3970696 Z M21.9351032,3.27179487 C19.1433628,3.27179487 16.8424779,6.15409035 16.8424779,9.73748474 C16.8424779,13.3208791 19.1126844,16.2031746 21.9351032,16.2031746 C24.7575221,16.2031746 26.9970501,13.2819292 26.9970501,9.73748474 C26.9970501,6.19304029 24.7268437,3.27179487 21.9351032,3.27179487 Z" fill="url(#left-to-right)"></path>
                    <g transform="translate(0.000000, 13.632479)" fill="#56AAFF">
                        <path d="M12.0873156,10.204884 C11.7498525,10.204884 11.4430678,10.0490842 11.1976401,9.73748474 C10.7067847,9.11428571 10.7067847,8.1015873 11.1976401,7.43943834 L16.5970501,0.584249084 C17.0879056,-0.0389499389 17.8855457,-0.0389499389 18.4070796,0.584249084 C18.8979351,1.20744811 18.8979351,2.22014652 18.4070796,2.88229548 L12.9769912,9.73748474 C12.7315634,10.0490842 12.3941003,10.204884 12.0873156,10.204884 Z"></path>
                        <path d="M1.41120944,23.7205128 C1.07374631,23.7205128 0.766961652,23.5647131 0.521533923,23.2531136 C0.0306784661,22.6299145 0.0306784661,21.6172161 0.521533923,20.9550672 L5.92094395,14.0998779 C6.41179941,13.4766789 7.20943953,13.4766789 7.73097345,14.0998779 C8.22182891,14.7230769 8.22182891,15.7357753 7.73097345,16.3979243 L2.33156342,23.2531136 C2.05545723,23.5647131 1.74867257,23.7205128 1.41120944,23.7205128 Z"></path>
                    </g>
                </g>
            </g>
            <g id="Group">
                <path d="M7.84561404,69.6424908 C3.67953216,69.6424908 0.273684211,65.3190476 0.273684211,59.943956 C0.273684211,54.6078144 3.67953216,50.2843712 7.84561404,50.2843712 C12.0116959,50.2843712 15.4175439,54.6078144 15.4175439,59.943956 C15.4175439,65.2800977 12.0116959,69.6424908 7.84561404,69.6424908 Z M7.84561404,53.4782662 C5.07836257,53.4782662 2.79766082,56.3605617 2.79766082,59.943956 C2.79766082,63.4884005 5.04795322,66.4096459 7.84561404,66.4096459 C10.6432749,66.4096459 12.8935673,63.5273504 12.8935673,59.943956 C12.8935673,56.3995116 10.6128655,53.4782662 7.84561404,53.4782662 Z" id="Shape" fill="url(#left-to-right)"></path>
                <g transform="translate(12.771930, 58.035409)" fill="#56AAFF" id="Shape">
                    <path d="M15.2350877,3.50549451 L10.825731,3.50549451 C10.1263158,3.50549451 9.57894737,2.76544567 9.57894737,1.90854701 C9.57894737,1.05164835 10.1567251,0.311599512 10.825731,0.311599512 L15.2350877,0.311599512 C15.9345029,0.311599512 16.4818713,1.05164835 16.4818713,1.90854701 C16.4818713,2.76544567 15.9345029,3.50549451 15.2350877,3.50549451 Z"></path>
                    <path d="M5.77777778,3.50549451 L1.36842105,3.50549451 C0.669005848,3.50549451 0.121637427,2.76544567 0.121637427,1.90854701 C0.121637427,1.05164835 0.699415205,0.311599512 1.36842105,0.311599512 L5.77777778,0.311599512 C6.47719298,0.311599512 7.0245614,1.05164835 7.0245614,1.90854701 C7.0245614,2.76544567 6.47719298,3.50549451 5.77777778,3.50549451 Z"></path>
                </g>
                <g transform="translate(5.169591, 82.184371)" id="Shape">
                    <path d="M7.72397661,37.4308913 C3.55789474,37.4308913 0.152046784,33.1074481 0.152046784,27.7713065 C0.152046784,22.4351648 3.55789474,18.1117216 7.72397661,18.1117216 C11.8900585,18.1117216 15.2959064,22.4351648 15.2959064,27.7713065 C15.2959064,33.1074481 11.8900585,37.4308913 7.72397661,37.4308913 Z M7.72397661,21.3056166 C4.95672515,21.3056166 2.67602339,24.1879121 2.67602339,27.7713065 C2.67602339,31.3157509 4.92631579,34.2369963 7.72397661,34.2369963 C10.5216374,34.2369963 12.7719298,31.3547009 12.7719298,27.7713065 C12.7719298,24.226862 10.4912281,21.3056166 7.72397661,21.3056166 Z" fill="url(#left-to-right)"></path>
                    <g transform="translate(10.643275, 0.000000)" fill="#56AAFF">
                        <path d="M1.49005848,23.7205128 C1.15555556,23.7205128 0.851461988,23.5647131 0.608187135,23.2531136 C0.121637427,22.6299145 0.121637427,21.6172161 0.608187135,20.9550672 L5.96023392,14.0998779 C6.44678363,13.4766789 7.2374269,13.4766789 7.75438596,14.0998779 C8.24093567,14.7230769 8.24093567,15.7357753 7.75438596,16.3979243 L2.40233918,23.2531136 C2.12865497,23.5647131 1.79415205,23.7205128 1.49005848,23.7205128 Z"></path>
                        <path d="M12.0421053,10.204884 C11.7076023,10.204884 11.4035088,10.0490842 11.1602339,9.73748474 C10.6736842,9.11428571 10.6736842,8.1015873 11.1602339,7.43943834 L16.5122807,0.584249084 C16.9988304,-0.0389499389 17.7894737,-0.0389499389 18.3064327,0.584249084 C18.7929825,1.20744811 18.7929825,2.22014652 18.3064327,2.88229548 L12.954386,9.73748474 C12.7111111,10.0490842 12.3766082,10.204884 12.0421053,10.204884 Z"></path>
                    </g>
                </g>
                <g transform="translate(5.169591, 0.000000)" id="Shape">
                    <path d="M7.72397661,19.3970696 C3.55789474,19.3970696 0.152046784,15.0736264 0.152046784,9.73748474 C0.152046784,4.4013431 3.55789474,0.0778998779 7.72397661,0.0778998779 C11.8900585,0.0778998779 15.2959064,4.4013431 15.2959064,9.73748474 C15.2959064,15.0736264 11.8900585,19.3970696 7.72397661,19.3970696 Z M7.72397661,3.27179487 C4.95672515,3.27179487 2.67602339,6.15409035 2.67602339,9.73748474 C2.67602339,13.3208791 4.92631579,16.2031746 7.72397661,16.2031746 C10.5216374,16.2031746 12.7719298,13.2819292 12.7719298,9.73748474 C12.7719298,6.19304029 10.4912281,3.27179487 7.72397661,3.27179487 Z" fill="url(#left-to-right)"></path>
                    <g transform="translate(10.643275, 13.632479)" fill="#56AAFF">
                        <path d="M6.84210526,10.204884 C6.50760234,10.204884 6.20350877,10.0490842 5.96023392,9.73748474 L0.608187135,2.88229548 C0.121637427,2.25909646 0.121637427,1.24639805 0.608187135,0.584249084 C1.09473684,-0.0389499389 1.88538012,-0.0389499389 2.40233918,0.584249084 L7.75438596,7.43943834 C8.24093567,8.06263736 8.24093567,9.07533578 7.75438596,9.73748474 C7.48070175,10.0490842 7.14619883,10.204884 6.84210526,10.204884 Z"></path>
                        <path d="M17.394152,23.7205128 C17.0596491,23.7205128 16.7555556,23.5647131 16.5122807,23.2531136 L11.1602339,16.3979243 C10.6736842,15.7747253 10.6736842,14.7620269 11.1602339,14.0998779 C11.6467836,13.4766789 12.4374269,13.4766789 12.954386,14.0998779 L18.3064327,20.9550672 C18.7929825,21.5782662 18.7929825,22.5909646 18.3064327,23.2531136 C18.0631579,23.5647131 17.728655,23.7205128 17.394152,23.7205128 Z"></path>
                    </g>
                </g>
            </g>
        </g>
    </g>
</svg>