<?xml version="1.0" encoding="UTF-8"?>
<svg width="110px" height="122px" viewBox="0 0 110 122" version="1.1" xmlns="http://www.w3.org/2000/svg" xmlns:xlink="http://www.w3.org/1999/xlink">
    <!-- Generator: Sketch 51.2 (57519) - http://www.bohemiancoding.com/sketch -->
    <title>Slice 1</title>
    <desc>Created with Sketch.</desc>
    <defs>
        <linearGradient id="left-to-right" x1="0.5" y1="1" x2="0.5" y2="0">
          <stop offset="0" stop-color="#FAC333">
            <animate dur="2s" attributeName="offset" fill="freeze" from="0" to="1" />
          </stop>
          <stop offset="0" stop-color="#fff">
            <animate dur="2s" attributeName="offset" fill="freeze" from="0" to="1" />
          </stop>
          
        </linearGradient>
    </defs>
    <g id="Page-1" stroke="none" stroke-width="1" fill="none" fill-rule="evenodd">
        <g id="if_seo_web-95_1048349" transform="translate(2.000000, 2.000000)">
            <polygon id="Shape" fill-rule="nonzero" points="95.9 84.4 53.2 109 10.4 84.4 10.4 35 53.2 10.4 95.9 35"></polygon>
            <path d="M53.2,22.7 L53.7,97.2" id="Shape" stroke="#56AAFF" stroke-width="2" stroke-linecap="round" stroke-dasharray="6,5"></path>
            <path d="M21,41.6 L85.8,78.4" id="Shape" stroke="#56AAFF" stroke-width="2" stroke-linecap="round" stroke-dasharray="6,5"></path>
            <path d="M21.3,78.8 L85.5,41.1" id="Shape" stroke="#56AAFF" stroke-width="2" stroke-linecap="round" stroke-dasharray="6,5"></path>
            <path d="M66.7,56.6 C66.7,56.6 66.7,56.6 66.7,56.6 C66.7,49.7 61.2,44.2 54.4,44.2 C48.7,44.2 43.9,48.1 42.5,53.3 C37.4,53.7 33.3,58 33.3,63.2 C33.3,68.7 37.8,73.1 43.2,73.1 L65.8,73.1 C70.4,73.1 74.1,69.4 74.1,64.8 C74.1,60.6 70.9,57.1 66.7,56.6 Z" id="Shape" fill="url(#left-to-right)" fill-rule="nonzero"></path>
            <path d="M66.7,56.6 C66.7,56.6 66.7,56.6 66.7,56.6 C66.7,49.7 61.2,44.2 54.4,44.2 C48.7,44.2 43.9,48.1 42.5,53.3 C37.4,53.7 33.3,58 33.3,63.2 C33.3,68.7 37.8,73.1 43.2,73.1 L65.8,73.1 C70.4,73.1 74.1,69.4 74.1,64.8 C74.1,60.6 70.9,57.1 66.7,56.6 Z" id="Shape" stroke="#56AAFF" stroke-width="4" stroke-linecap="round"></path>
            <polygon id="Shape" stroke="#56AAFF" stroke-width="4" stroke-linecap="round" stroke-linejoin="round" points="95.9 84.4 53.2 109 10.4 84.4 10.4 35 53.2 10.4 95.9 35"></polygon>
            <circle id="Oval" fill="#FFFFFF" fill-rule="nonzero" cx="53.2" cy="107.3" r="10"></circle>
            <circle id="Oval" fill="#FAC333" fill-rule="nonzero" cx="53.2" cy="107.3" r="5.1"></circle>
            <circle id="Oval" stroke="#56AAFF" stroke-width="4" stroke-linecap="round" stroke-linejoin="round" cx="53.2" cy="107.3" r="10"></circle>
            <circle id="Oval" fill="#FFFFFF" fill-rule="nonzero" cx="53.2" cy="10.7" r="10"></circle>
            <circle id="Oval" fill="#FAC333" fill-rule="nonzero" cx="53.2" cy="10.7" r="5.1"></circle>
            <circle id="Oval" stroke="#56AAFF" stroke-width="4" stroke-linecap="round" stroke-linejoin="round" cx="53.2" cy="10.7" r="10"></circle>
            <circle id="Oval" fill="#FFFFFF" fill-rule="nonzero" cx="95.6" cy="35.7" r="10"></circle>
            <circle id="Oval" fill="#FAC333" fill-rule="nonzero" cx="95.6" cy="35.7" r="5.1"></circle>
            <circle id="Oval" stroke="#56AAFF" stroke-width="4" stroke-linecap="round" stroke-linejoin="round" cx="95.6" cy="35.7" r="10"></circle>
            <circle id="Oval" fill="#FFFFFF" fill-rule="nonzero" cx="95.6" cy="84.6" r="10"></circle>
            <circle id="Oval" fill="#FAC333" fill-rule="nonzero" cx="95.6" cy="84.6" r="5.1"></circle>
            <circle id="Oval" stroke="#56AAFF" stroke-width="4" stroke-linecap="round" stroke-linejoin="round" cx="95.6" cy="84.6" r="10"></circle>
            <circle id="Oval" fill="#FFFFFF" fill-rule="nonzero" cx="10.4" cy="35.7" r="10"></circle>
            <circle id="Oval" fill="#FAC333" fill-rule="nonzero" cx="10.4" cy="35.7" r="5.1"></circle>
            <circle id="Oval" stroke="#56AAFF" stroke-width="4" stroke-linecap="round" stroke-linejoin="round" cx="10.4" cy="35.7" r="10"></circle>
            <circle id="Oval" fill="#FFFFFF" fill-rule="nonzero" cx="10.4" cy="84.6" r="10"></circle>
            <circle id="Oval" fill="#FAC333" fill-rule="nonzero" cx="10.4" cy="84.6" r="5.1"></circle>
            <circle id="Oval" stroke="#56AAFF" stroke-width="4" stroke-linecap="round" stroke-linejoin="round" cx="10.4" cy="84.6" r="10"></circle>
        </g>
    </g>
</svg>