<?xml version="1.0" encoding="UTF-8"?>
<svg width="104px" height="121px" viewBox="0 0 104 121" version="1.1" xmlns="http://www.w3.org/2000/svg" xmlns:xlink="http://www.w3.org/1999/xlink">
    <!-- Generator: Sketch 51.2 (57519) - http://www.bohemiancoding.com/sketch -->
    <title>Slice 1</title>
    <desc>Created with Sketch.</desc>
   <defs>
        <linearGradient id="bottom-to-top" x1="0.5" y1="1" x2="0.5" y2="0">
          <stop offset="0" stop-color="#FAC333">
            <animate dur="2s" attributeName="offset" fill="freeze" from="0" to="1" />
          </stop>
          <stop offset="0" stop-color="#fff">
            <animate dur="2s" attributeName="offset" fill="freeze" from="0" to="1" />
          </stop>
          
        </linearGradient>
    </defs>
    <g id="Page-1" stroke="none" stroke-width="1" fill="none" fill-rule="evenodd">
        <g id="if_big_data_data_variety_analytics_different_type_3132419" fill-rule="nonzero">
            <ellipse id="Oval" fill="#0478ED" cx="65.5652174" cy="108.395833" rx="10.173913" ry="11.34375"></ellipse>
            <path d="M46.3478261,98.3125 L30.5217391,98.3125 C29.8434783,98.3125 29.3913043,98.8166667 29.3913043,99.5729167 L29.3913043,117.21875 C29.3913043,117.975 29.8434783,118.479167 30.5217391,118.479167 L46.3478261,118.479167 C47.026087,118.479167 47.4782609,117.975 47.4782609,117.21875 L47.4782609,99.5729167 C47.4782609,98.8166667 47.026087,98.3125 46.3478261,98.3125 Z" id="Shape" fill="url(#bottom-to-top)"></path>
            <path d="M91.5652174,98.5645833 L82.5217391,115.958333 C81.8434783,117.21875 82.5217391,118.479167 83.6521739,118.479167 L101.73913,118.479167 C102.869565,118.479167 103.547826,117.21875 102.869565,116.210417 L93.826087,98.8166667 C93.373913,97.55625 92.0173913,97.55625 91.5652174,98.5645833 Z" id="Shape" fill="url(#bottom-to-top)"></path>
            <path d="M12.4347826,118.227083 L21.4782609,100.833333 C21.9304348,99.825 21.2521739,98.5645833 20.3478261,98.5645833 L2.26086957,98.5645833 C1.13043478,98.5645833 0.452173913,99.825 1.13043478,100.833333 L10.173913,118.227083 C10.626087,119.235417 11.9826087,119.235417 12.4347826,118.227083 Z" id="Shape" fill="#0478ED"></path>
            <path d="M18.0869565,30.25 L4.52173913,30.25 C3.16521739,30.25 2.26086957,31.2583333 2.26086957,32.7708333 L2.26086957,85.7083333 C2.26086957,87.2208333 3.16521739,88.2291667 4.52173913,88.2291667 L18.0869565,88.2291667 C19.4434783,88.2291667 20.3478261,87.2208333 20.3478261,85.7083333 L20.3478261,32.7708333 C20.3478261,31.2583333 19.4434783,30.25 18.0869565,30.25 Z" id="Shape" fill="#D9DCE1"></path>
            <path d="M18.0869565,52.9375 L4.52173913,52.9375 C3.16521739,52.9375 2.26086957,53.9458333 2.26086957,55.4583333 L2.26086957,85.7083333 C2.26086957,87.2208333 3.16521739,88.2291667 4.52173913,88.2291667 L18.0869565,88.2291667 C19.4434783,88.2291667 20.3478261,87.2208333 20.3478261,85.7083333 L20.3478261,55.4583333 C20.3478261,53.9458333 19.4434783,52.9375 18.0869565,52.9375 Z" id="Shape" fill="#56AAFF"></path>
            <path d="M45.2173913,0 L31.6521739,0 C30.2956522,0 29.3913043,1.00833333 29.3913043,2.52083333 L29.3913043,85.7083333 C29.3913043,87.2208333 30.2956522,88.2291667 31.6521739,88.2291667 L45.2173913,88.2291667 C46.573913,88.2291667 47.4782609,87.2208333 47.4782609,85.7083333 L47.4782609,2.52083333 C47.4782609,1.00833333 46.573913,0 45.2173913,0 Z" id="Shape" fill="#D9DCE1"></path>
            <path d="M45.2173913,70.5833333 L31.6521739,70.5833333 C30.2956522,70.5833333 29.3913043,71.5916667 29.3913043,73.1041667 L29.3913043,85.7083333 C29.3913043,87.2208333 30.2956522,88.2291667 31.6521739,88.2291667 L45.2173913,88.2291667 C46.573913,88.2291667 47.4782609,87.2208333 47.4782609,85.7083333 L47.4782609,73.1041667 C47.4782609,71.5916667 46.573913,70.5833333 45.2173913,70.5833333 Z" id="Shape" fill="url(#bottom-to-top)"></path>
            <path d="M72.3478261,47.8958333 L58.7826087,47.8958333 C57.426087,47.8958333 56.5217391,48.9041667 56.5217391,50.4166667 L56.5217391,85.7083333 C56.5217391,87.2208333 57.426087,88.2291667 58.7826087,88.2291667 L72.3478261,88.2291667 C73.7043478,88.2291667 74.6086957,87.2208333 74.6086957,85.7083333 L74.6086957,50.4166667 C74.6086957,48.9041667 73.7043478,47.8958333 72.3478261,47.8958333 Z" id="Shape" fill="#D9DCE1"></path>
            <path d="M99.4782609,17.6458333 L85.9130435,17.6458333 C84.5565217,17.6458333 83.6521739,18.6541667 83.6521739,20.1666667 L83.6521739,85.7083333 C83.6521739,87.2208333 84.5565217,88.2291667 85.9130435,88.2291667 L99.4782609,88.2291667 C100.834783,88.2291667 101.73913,87.2208333 101.73913,85.7083333 L101.73913,20.1666667 C101.73913,18.6541667 100.834783,17.6458333 99.4782609,17.6458333 Z" id="Shape" fill="#D9DCE1"></path>
            <path d="M99.4782609,35.2916667 L85.9130435,35.2916667 C84.5565217,35.2916667 83.6521739,36.3 83.6521739,37.8125 L83.6521739,85.7083333 C83.6521739,87.2208333 84.5565217,88.2291667 85.9130435,88.2291667 L99.4782609,88.2291667 C100.834783,88.2291667 101.73913,87.2208333 101.73913,85.7083333 L101.73913,37.8125 C101.73913,36.3 100.834783,35.2916667 99.4782609,35.2916667 Z" id="Shape" fill="url(#bottom-to-top)"></path>
            <path d="M72.3478261,63.0208333 L58.7826087,63.0208333 C57.426087,63.0208333 56.5217391,64.0291667 56.5217391,65.5416667 L56.5217391,85.7083333 C56.5217391,87.2208333 57.426087,88.2291667 58.7826087,88.2291667 L72.3478261,88.2291667 C73.7043478,88.2291667 74.6086957,87.2208333 74.6086957,85.7083333 L74.6086957,65.5416667 C74.6086957,64.0291667 73.7043478,63.0208333 72.3478261,63.0208333 Z" id="Shape" fill="#56AAFF"></path>
        </g>
    </g>
</svg>