<?xml version="1.0" encoding="UTF-8"?>
<svg width="104px" height="121px" viewBox="0 0 104 121" version="1.1" xmlns="http://www.w3.org/2000/svg" xmlns:xlink="http://www.w3.org/1999/xlink">
    <!-- Generator: Sketch 51.2 (57519) - http://www.bohemiancoding.com/sketch -->
    <title>Slice 1</title>
    <desc>Created with Sketch.</desc>
    <defs>
        <linearGradient id="left-to-right">
          <stop offset="0" stop-color="#FAC333">
            <animate dur="2s" attributeName="offset" fill="freeze" from="0" to="1" />
          </stop>
          <stop offset="0" stop-color="#fff">
            <animate dur="2s" attributeName="offset" fill="freeze" from="0" to="1" />
          </stop>
          
        </linearGradient>
    </defs>
    <g id="Page-1" stroke="none" stroke-width="1" fill="none" fill-rule="evenodd">
        <g id="if_planning-12_526875" transform="translate(-2.000000, 11.000000)" fill-rule="nonzero">
            <path d="M24.3,24 L2,24 C0.9,24 0,23.1 0,22 C0,20.9 0.9,20 2,20 L24.3,20 C25.4,20 26.3,20.9 26.3,22 C26.3,23.1 25.4,24 24.3,24 Z" id="test1" fill="url(#left-to-right)"></path>
            <path d="M53.3,36 L18,36 C16.9,36 16,35.1 16,34 C16,32.9 16.9,32 18,32 L53.3,32 C54.4,32 55.3,32.9 55.3,34 C55.3,35.1 54.4,36 53.3,36 Z" id="Shape" fill="#3B97D3"></path>
            <path d="M82.3,47 L28,47 C26.9,47 26,46.1 26,45 C26,43.9 26.9,43 28,43 L82.3,43 C83.4,43 84.3,43.9 84.3,45 C84.3,46.1 83.4,47 82.3,47 Z" id="Shape" fill="url(#left-to-right)"></path>
            <path d="M81.3,59 L59,59 C57.9,59 57,58.1 57,57 C57,55.9 57.9,55 59,55 L81.3,55 C82.4,55 83.3,55.9 83.3,57 C83.3,58.1 82.4,59 81.3,59 Z" id="Shape" fill="#3B97D3"></path>
            <path d="M98.3,70 L40,70 C38.9,70 38,69.1 38,68 C38,66.9 38.9,66 40,66 L98.3,66 C99.4,66 100.3,66.9 100.3,68 C100.3,69.1 99.4,70 98.3,70 Z" id="test2" fill="url(#left-to-right)"></path>
            <path d="M107.3,81 L82,81 C80.9,81 80,80.1 80,79 C80,77.9 80.9,77 82,77 L107.3,77 C108.4,77 109.3,77.9 109.3,79 C109.3,80.1 108.4,81 107.3,81 Z" id="Shape" fill="#3B97D3"></path>
            <rect id="Rectangle-path" fill="#D9DCE1" x="88" y="83" width="2" height="14"></rect>
            <rect id="Rectangle-path" fill="#D9DCE1" x="19" y="6" width="2" height="12"></rect>
            <path d="M103,92.9 C103,96.2 100.3,99 97,99 L12,99 C8.7,99 6,96.2 6,92.9 L6,26 L2,26 L2,92.9 C2,98.4 6.5,103 12,103 L97,103 C102.5,103 107,98.4 107,92.9 L107,83 L103,83 L103,92.9 Z" id="Shape" fill="#56AAFF"></path>
            <path d="M96,0 L12,0 C6.5,0 2,4.4 2,9.9 L2,18 L6,18 L6,9.9 C6,6.6 8.7,4 12,4 L97,4 C100.3,4 103,6.6 103,9.9 L103,75 L107,75 L107,9.9 C107,4.4 101.5,0 96,0 Z" id="Shape" fill="#56AAFF"></path>
            <rect id="Rectangle-path" fill="#D9DCE1" x="47" y="6" width="2" height="24"></rect>
            <rect id="Rectangle-path" fill="#D9DCE1" x="33" y="6" width="2" height="24"></rect>
            <rect id="Rectangle-path" fill="#D9DCE1" x="19" y="26" width="2" height="4"></rect>
            <rect id="Rectangle-path" fill="#D9DCE1" x="19" y="38" width="2" height="59"></rect>
            <rect id="Rectangle-path" fill="#D9DCE1" x="60" y="6" width="2" height="35"></rect>
            <rect id="Rectangle-path" fill="#D9DCE1" x="47" y="38" width="2" height="3"></rect>
            <rect id="Rectangle-path" fill="#D9DCE1" x="33" y="38" width="2" height="3"></rect>
            <rect id="Rectangle-path" fill="#D9DCE1" x="33" y="49" width="2" height="48"></rect>
            <rect id="Rectangle-path" fill="#D9DCE1" x="74" y="49" width="2" height="4"></rect>
            <rect id="Rectangle-path" fill="#D9DCE1" x="60" y="49" width="2" height="4"></rect>
            <rect id="Rectangle-path" fill="#D9DCE1" x="88" y="72" width="2" height="3"></rect>
            <rect id="Rectangle-path" fill="#D9DCE1" x="74" y="61" width="2" height="3"></rect>
            <rect id="Rectangle-path" fill="#D9DCE1" x="74" y="72" width="2" height="25"></rect>
            <rect id="Rectangle-path" fill="#D9DCE1" x="60" y="61" width="2" height="3"></rect>
            <rect id="Rectangle-path" fill="#D9DCE1" x="60" y="72" width="2" height="25"></rect>
            <rect id="Rectangle-path" fill="#D9DCE1" x="47" y="72" width="2" height="25"></rect>
            <rect id="Rectangle-path" fill="#D9DCE1" x="47" y="49" width="2" height="15"></rect>
            <polygon id="Shape" fill="#D9DCE1" points="74.2 27.2 76 25.4 76 6 74 6 74 27.1"></polygon>
            <path d="M74.2,36.9 C74.1,36.9 74,36.9 74,36.9 L74,41 L76,41 L76,36.4 C76,36.7 74.8,36.9 74.2,36.9 Z" id="Shape" fill="#D9DCE1"></path>
            <path d="M90,13.8 L90,6 L88,6 L88,14.3 C88,14 89,13.8 90,13.8 Z" id="Shape" fill="#D9DCE1"></path>
            <polygon id="Shape" fill="#D9DCE1" points="88 25.4 88 64 90 64 90 23.4"></polygon>
            <path d="M91.1,16.3 C90.3,15.5 89.1,15.5 88.3,16.3 L74.5,30.1 L68,23.5 C67.2,22.7 66,22.7 65.2,23.5 C64.4,24.3 64.4,25.5 65.2,26.3 L73.2,34.3 C73.6,34.7 74.1,34.9 74.6,34.9 C75.1,34.9 75.6,34.7 76,34.3 L91.2,19.1 C91.9,18.4 91.9,17.1 91.1,16.3 Z" id="Shape" fill="#3B97D3"></path>
        </g>
    </g>
</svg>